Coordinates
version=1
nRows=21
nColumns=12
inDegrees=yes

Units are S.I. units (second, meters, Newtons, ...)
Angles are in degrees

endheader
time	SC_y	SC_z	SC_x	AC_y	AC_z	AC_x	GH_y	GH_z	GH_yy	EL_x	PS_y
       0.0               -14.7          37.84          25.97           55.4          8.573           7.68          25.02          58.95         -124.7          126.7          8.951
  0.002212               -14.7          37.83          25.97          55.39          8.572          7.679          25.04          58.94         -124.7          126.7          8.964
  0.004424               -14.7          37.83          25.97          55.39           8.57          7.678          25.06          58.94         -124.7          126.7          8.978
  0.006636               -14.7          37.83          25.97          55.39          8.569          7.677          25.08          58.93         -124.7          126.7          8.993
  0.008849               -14.7          37.82          25.97          55.39          8.567          7.676          25.11          58.93         -124.7          126.7          9.008
   0.01106               -14.7          37.82          25.97          55.38          8.565          7.674          25.13          58.92         -124.7          126.7          9.025
   0.01327               -14.7          37.82          25.97          55.38          8.563          7.673          25.16          58.92         -124.7          126.7          9.043
   0.01549               -14.7          37.81          25.97          55.37          8.561          7.671          25.19          58.91         -124.7          126.7          9.062
    0.0177               -14.7          37.81          25.97          55.37          8.558           7.67          25.22           58.9         -124.7          126.7          9.082
   0.01991               -14.7          37.81          25.97          55.37          8.556          7.668          25.25           58.9         -124.6          126.7          9.104
   0.02212              -14.71           37.8          25.97          55.36          8.553          7.666          25.29          58.89         -124.6          126.7          9.127
   0.02433              -14.71           37.8          25.97          55.36           8.55          7.664          25.33          58.88         -124.6          126.7          9.153
   0.02655              -14.71          37.79          25.97          55.35          8.547          7.662          25.37          58.87         -124.6          126.7           9.18
   0.02876              -14.71          37.79          25.97          55.34          8.544          7.659          25.41          58.86         -124.6          126.7          9.209
   0.03097              -14.71          37.78          25.97          55.34           8.54          7.657          25.46          58.85         -124.6          126.7          9.241
   0.03318              -14.71          37.77          25.97          55.33          8.536          7.654          25.51          58.84         -124.5          126.7          9.275
   0.03539              -14.71          37.77          25.97          55.32          8.532          7.651          25.57          58.83         -124.5          126.7          9.313
   0.03761              -14.71          37.76          25.98          55.32          8.527          7.648          25.63          58.82         -124.5          126.7          9.354
   0.03982              -14.72          37.75          25.98          55.31          8.522          7.644           25.7           58.8         -124.5          126.7          9.398
   0.04203              -14.72          37.74          25.98           55.3          8.517           7.64          25.77          58.79         -124.4          126.7          9.447
   0.04424              -14.72          37.73          25.98          55.29           8.51          7.636          25.85          58.77         -124.4          126.7          9.501
